<svg width="22" height="23" viewBox="0 0 22 23" fill="none" xmlns="http://www.w3.org/2000/svg">
<g filter="url(#filter0_d)">
<path fill-rule="evenodd" clip-rule="evenodd" d="M3.31509 3.31845C4.80992 1.82362 6.79776 1 8.91217 1C11.0266 1 13.0146 1.8236 14.5093 3.31845C17.4052 6.21361 17.5841 10.8129 15.0469 13.9189L18.7656 17.6376C19.0781 17.9502 19.0781 18.4565 18.7656 18.7691C18.6093 18.9254 18.4046 19.0035 18.1999 19.0035C17.9951 19.0035 17.7904 18.9254 17.6341 18.7691L13.9154 15.0504C12.5065 16.2037 10.7578 16.8312 8.91203 16.8312C6.79762 16.8312 4.80964 16.0076 3.31495 14.5127C0.22835 11.4269 0.22835 6.40495 3.31495 3.31835L3.31509 3.31845ZM4.44655 13.3814C5.63974 14.5746 7.22529 15.231 8.91221 15.231C10.5991 15.231 12.1846 14.5738 13.3779 13.3814C15.8402 10.9191 15.8402 6.91214 13.3779 4.45007C12.1847 3.25766 10.5991 2.60049 8.91221 2.60049C7.22529 2.60049 5.63978 3.25766 4.44655 4.45007C1.98427 6.91294 1.98427 10.9193 4.44655 13.3814Z" fill="white"/>
</g>
<defs>
<filter id="filter0_d" x="0" y="0" width="22" height="22.0035" filterUnits="userSpaceOnUse" color-interpolation-filters="sRGB">
<feFlood flood-opacity="0" result="BackgroundImageFix"/>
<feColorMatrix in="SourceAlpha" type="matrix" values="0 0 0 0 0 0 0 0 0 0 0 0 0 0 0 0 0 0 127 0"/>
<feOffset dx="1" dy="1"/>
<feGaussianBlur stdDeviation="1"/>
<feColorMatrix type="matrix" values="0 0 0 0 0 0 0 0 0 0 0 0 0 0 0 0 0 0 0.1 0"/>
<feBlend mode="normal" in2="BackgroundImageFix" result="effect1_dropShadow"/>
<feBlend mode="normal" in="SourceGraphic" in2="effect1_dropShadow" result="shape"/>
</filter>
</defs>
</svg>
